<?xml version="1.0" standalone="yes"?>
<svg xmlns="http://www.w3.org/2000/svg" width="500" height="500">
<path style="fill:#fffffe; stroke:none;" d="M0 0L0 500L500 500L500 0L0 0z"/>
<path style="fill:#fffffe; stroke:none;" d="M219 234L220 234L217 226C227.663 226.126 232.869 237.272 241 243C235.221 234.796 220.113 226.477 227.703 215C230.354 210.991 234.226 207.937 237 204L238 204L261 228C263.258 226.389 266.801 224.202 266.793 220.999C266.785 217.826 263.012 215.027 260.999 213C255.631 207.592 246.502 194.216 239 192.346C234.833 191.307 230.521 197.479 228 200C217.633 210.366 211.575 219.91 219 234z"/>
<path style="fill:#ef6f75; stroke:none;" d="M258 198C260.65 203.682 265.77 207.385 269.892 212C277.089 220.058 273.423 237.003 260 233.562C251.737 231.443 248.355 221.256 241 217.752C237.29 215.984 234.398 219.688 232 222C236.073 227.781 241.598 233.211 247 237.787C262.445 250.87 286.938 238.668 283.787 218C282.663 210.626 276.994 204.64 271.17 200.483C267.089 197.571 262.799 198 258 198M229 212L230 213L229 212M228 213L229 214L228 213M227.333 214.667L227.667 215.333L227.333 214.667M226 216L227 217L226 216M225 224L226 225L225 224z"/>
<path style="fill:#4679b7; stroke:none;" d="M217 226C219.821 237.862 228.27 242.968 240 243C234.454 235.126 227.086 226.036 217 226z"/>
<path style="fill:#fffffe; stroke:none;" d="M221 235L222 236L221 235M223 238L224 239L223 238M226 240L227 241L226 240M228 241L229 242L228 241M230.667 242.333L231.333 242.667L230.667 242.333z"/>
<path style="fill:#ef6f75; stroke:none;" d="M193 265L194 266L193 265M211 265L212 266L211 265z"/>
<path style="fill:#4679b7; stroke:none;" d="M224 265L226 267L224 265z"/>
<path style="fill:#ef6f75; stroke:none;" d="M281 265L282 266L281 265z"/>
<path style="fill:#4679b7; stroke:none;" d="M179 266L180 267L179 266z"/>
<path style="fill:#0a0a0a; stroke:none;" d="M184 279C182.002 282.59 179.896 282.6 176 282C177.081 288.227 186.315 288.484 187.458 281.96C188.396 276.599 181.436 274.595 180 270L186 270C183.088 261.234 168.601 274.41 184 279z"/>
<path style="fill:#4679b7; stroke:none;" d="M185 266L186 270L187 270L185 266z"/>
<path style="fill:#ef6f75; stroke:none;" d="M186 266L187 267L186 266z"/>
<path style="fill:#0a0a0a; stroke:none;" d="M193 266L193 287L197 287L197 275L204 280L208 275L208 287L212 287L212 266L203 275L202 275L195 266L193 266M224 266L216 287L233 287L224 266M238 266L238 287L242 287L242 279L252 287L248 278C259.203 270.718 244.636 266.004 238 266z"/>
<path style="fill:#4679b7; stroke:none;" d="M247.667 266.333L248.333 266.667L247.667 266.333z"/>
<path style="fill:#0a0a0a; stroke:none;" d="M255 266L255 270L261 270L261 287L264 287L264 270L269 270L269 266L255 266z"/>
<path style="fill:#4679b7; stroke:none;" d="M269 266L269 270L270 270L269 266M280.667 266.333L281.333 266.667L280.667 266.333z"/>
<path style="fill:#fffffe; stroke:none;" d="M299 266L300 267L299 266z"/>
<path style="fill:#4679b7; stroke:none;" d="M300 266L301 267L300 266z"/>
<path style="fill:#0a0a0a; stroke:none;" d="M308 282C302.996 283.029 294.949 279.538 299.053 273.228C301.247 269.857 305.657 270.262 308 267C305.595 266.309 303.506 265.873 301.002 266.576C280.977 272.198 305.558 296.062 308 282z"/>
<path style="fill:#4679b7; stroke:none;" d="M307 266L308 267L307 266z"/>
<path style="fill:#fffffe; stroke:none;" d="M312 266L312 287L313 287L312 266z"/>
<path style="fill:#0a0a0a; stroke:none;" d="M313 266L313 287L323 287L323 283L317 283L317 278L322 278L322 275L317 275L317 270L323 270L323 266L313 266z"/>
<path style="fill:#ef6f75; stroke:none;" d="M177 267L178 268L177 267z"/>
<path style="fill:#fffffe; stroke:none;" d="M223 267L224 268L223 267z"/>
<path style="fill:#0a0a0a; stroke:none;" d="M280 267L272 287L281 284.597L290 287L282 267L280 267z"/>
<path style="fill:#fffffe; stroke:none;" d="M297 267L298 268L297 267z"/>
<path style="fill:#4679b7; stroke:none;" d="M196 268L197 269L196 268M208 268L209 269L208 268M223 268L224 269L223 268z"/>
<path style="fill:#ef6f75; stroke:none;" d="M226 268L227 269L226 268z"/>
<path style="fill:#4679b7; stroke:none;" d="M279 268L280 269L279 268M282 268L283 269L282 268M296 268L297 269L296 268M307 268L306 271L307 268M176 269L177 270L176 269M197 269L198 270L197 269M207 269L208 270L207 269M226 269L227 270L226 269M251 269L252 270L251 269M295 269L296 270L295 269M180 270L181 271L180 270M185 270L186 271L185 270M198 270L199 271L198 270M206 270L207 271L206 270M222 270L223 271L222 270z"/>
<path style="fill:#fffffe; stroke:none;" d="M242 270L242 275C247.723 274.543 247.471 270.876 242 270z"/>
<path style="fill:#fffffe; stroke:none;" d="M246 270L247 271L246 270z"/>
<path style="fill:#4679b7; stroke:none;" d="M260 270L260 287L261 287L260 270M264 270L264 287L265 287L264 270z"/>
<path style="fill:#fffffe; stroke:none;" d="M278 270L279 271L278 270M283 270L284 271L283 270M301 270L302 271L301 270M307 270L308 271L307 270M199 271L200 272L199 271z"/>
<path style="fill:#4679b7; stroke:none;" d="M205 271L206 272L205 271M227 271L228 272L227 271z"/>
<path style="fill:#fffffe; stroke:none;" d="M247 271L248 272L247 271z"/>
<path style="fill:#4679b7; stroke:none;" d="M278 271L279 272L278 271M283 271L284 272L283 271M294 271L295 272L294 271M299 271L300 272L299 271z"/>
<path style="fill:#ef6f75; stroke:none;" d="M175 272L176 273L175 272M200 272L201 273L200 272z"/>
<path style="fill:#fffffe; stroke:none;" d="M204 272L205 273L204 272M221 272L222 273L221 272z"/>
<path style="fill:#4679b7; stroke:none;" d="M180 273L181 274L180 273z"/>
<path style="fill:#ef6f75; stroke:none;" d="M203 273L204 274L203 273z"/>
<path style="fill:#fffffe; stroke:none;" d="M228 273L229 274L228 273M247 273L248 274L247 273z"/>
<path style="fill:#4679b7; stroke:none;" d="M277 273L278 274L277 273M284 273L285 274L284 273M293.333 273.667L293.667 274.333L293.333 273.667M182 274L183 275L182 274z"/>
<path style="fill:#fffffe; stroke:none;" d="M202 274L203 275L202 274z"/>
<path style="fill:#4679b7; stroke:none;" d="M228 274L229 275L228 274M317 274L317 275L322 275L317 274M184 275L185 276L184 275M197 275L198 276L197 275M207 275L208 276L207 275M220 275L221 276L220 275M251 275L252 276L251 275z"/>
<path style="fill:#fffffe; stroke:none;" d="M276 275L277 276L276 275M285 275L286 276L285 275z"/>
<path style="fill:#4679b7; stroke:none;" d="M297 275L297 278L298 278L297 275z"/>
<path style="fill:#ef6f75; stroke:none;" d="M322 275L322 278L323 278L322 275z"/>
<path style="fill:#4679b7; stroke:none;" d="M198 276L199 277L198 276M206 276L207 277L206 276z"/>
<path style="fill:#fffffe; stroke:none;" d="M224 276L225 277L224 276z"/>
<path style="fill:#4679b7; stroke:none;" d="M229 276L230 277L229 276M276 276L277 277L276 276M280.667 276.333L281.333 276.667L280.667 276.333M179 277L180 278L179 277M199 277L200 278L199 277M205 277L206 278L205 277z"/>
<path style="fill:#fffffe; stroke:none;" d="M219 277L220 278L219 277z"/>
<path style="fill:#fffffe; stroke:none;" d="M224 277L223 281C226.021 280.349 226.086 279.086 224 277z"/>
<path style="fill:#4679b7; stroke:none;" d="M225 277L226 278L225 277M249 277L250 278L249 277z"/>
<path style="fill:#fffffe; stroke:none;" d="M280 277L280 281L282 281L282 277L280 277z"/>
<path style="fill:#4679b7; stroke:none;" d="M293.333 277.667L293.667 278.333L293.333 277.667M181 278L182 279L181 278M187 278L188 279L187 278M204 278L205 279L204 278M223 278L224 279L223 278z"/>
<path style="fill:#fffffe; stroke:none;" d="M230 278L231 279L230 278M248 278L249 279L248 278z"/>
<path style="fill:#4679b7; stroke:none;" d="M275 278L276 279L275 278M286 278L287 279L286 278M317 278L317 279L322 279L317 278M183 279L184 280L183 279z"/>
<path style="fill:#ef6f75; stroke:none;" d="M223 279L224 280L223 279z"/>
<path style="fill:#4679b7; stroke:none;" d="M226.333 279.667L226.667 280.333L226.333 279.667M230 279L231 280L230 279M244 279L245 280L244 279M279 279L280 280L279 279M282 279L283 280L282 279z"/>
<path style="fill:#fffffe; stroke:none;" d="M293 279L294 280L293 279M298 279L299 280L298 279z"/>
<path style="fill:#4679b7; stroke:none;" d="M202 280L203 281L202 280M218 280L219 281L218 280z"/>
<path style="fill:#fffffe; stroke:none;" d="M249 280L250 281L249 280M274 280L275 281L274 280M279 280L280 281L279 280M282 280L283 281L282 280M287 280L288 281L287 280M176 281L177 282L176 281z"/>
<path style="fill:#4679b7; stroke:none;" d="M231 281L232 282L231 281M245 281L246 282L245 281M294 281L295 282L294 281M178 282L179 283L178 282M217 282L218 283L217 282M250 282L251 283L250 282M301 282L302 283L301 282z"/>
<path style="fill:#fffffe; stroke:none;" d="M302 282L303 283L302 282z"/>
<path style="fill:#ef6f75; stroke:none;" d="M304 282L305 283L304 282z"/>
<path style="fill:#4679b7; stroke:none;" d="M305.667 282.333L306.333 282.667L305.667 282.333z"/>
<path style="fill:#3f97ca; stroke:none;" d="M175 283L176 284L175 283z"/>
<path style="fill:#4679b7; stroke:none;" d="M187 283L188 284L187 283z"/>
<path style="fill:#3f97ca; stroke:none;" d="M232 283L233 284L232 283z"/>
<path style="fill:#4679b7; stroke:none;" d="M246 283L247 284L246 283M273 283L274 284L273 283M288 283L289 284L288 283z"/>
<path style="fill:#3f97ca; stroke:none;" d="M295 283L296 284L295 283z"/>
<path style="fill:#4679b7; stroke:none;" d="M323 283L323 287L324 287L323 283M175.333 284.667L175.667 285.333L175.333 284.667M222 284L222 285L228 285L222 284M251 284L252 285L251 284M278 284L278 285L284 285L278 284z"/>
<path style="fill:#3f97ca; stroke:none;" d="M296 284L297 285L296 284z"/>
<path style="fill:#ef6f75; stroke:none;" d="M186 285L187 286L186 285z"/>
<path style="fill:#4679b7; stroke:none;" d="M216 285L217 286L216 285M228 285L229 286L228 285M247 285L248 286L247 285z"/>
<path style="fill:#3f97ca; stroke:none;" d="M272 285L273 286L272 285z"/>
<path style="fill:#4679b7; stroke:none;" d="M289 285L290 286L289 285z"/>
<path style="fill:#3f97ca; stroke:none;" d="M308 285L309 286L308 285z"/>
<path style="fill:#4679b7; stroke:none;" d="M177 286L178 287L177 286M184 286L185 287L184 286M220 286L221 287L220 286M233 286L234 287L233 286M252 286L253 287L252 286M300 286L301 287L300 286M306.667 286.333L307.333 286.667L306.667 286.333z"/>
</svg>
